<?xml version="1.0" encoding="utf-8"?>
<!-- Generator: Adobe Illustrator 16.0.0, SVG Export Plug-In . SVG Version: 6.00 Build 0)  -->
<!DOCTYPE svg PUBLIC "-//W3C//DTD SVG 1.1//EN" "http://www.w3.org/Graphics/SVG/1.1/DTD/svg11.dtd">
<svg version="1.1" id="Layer_1" xmlns="http://www.w3.org/2000/svg" xmlns:xlink="http://www.w3.org/1999/xlink" x="0px" y="0px"
	 width="512px" height="512px" viewBox="0 0 512 512" enable-background="new 0 0 512 512" xml:space="preserve">
<path d="M256,0C114.625,0,0,114.625,0,256s114.625,256,256,256s256-114.625,256-256S397.375,0,256,0z M272,479.188V448h-32v31.188
	C129.281,471.313,40.688,382.719,32.813,272H64v-32H32.813C40.688,129.281,129.281,40.688,240,32.813V64h32V32.813
	C382.719,40.688,471.313,129.281,479.188,240H448v32h31.188C471.313,382.719,382.719,471.313,272,479.188z M373.781,188
	c2.188,3.813,0.875,8.719-2.938,10.938l-84.516,48.781c0.734,2.719,1.672,5.344,1.672,8.281c0,17.688-14.328,32-32,32
	s-32-14.313-32-32l-86.844-50.125c-7.656-4.438-10.281-14.219-5.859-21.875c4.406-7.688,14.203-10.313,21.859-5.875l87.344,50.438
	c4.656-2.625,9.75-4.563,15.5-4.563c8.938,0,16.984,3.688,22.797,9.625l84.047-48.563C366.594,182.844,371.5,184.156,373.781,188z"
	/>
</svg>
